<svg width="37" height="39" viewBox="0 0 37 39" fill="none" xmlns="http://www.w3.org/2000/svg">
<path fill-rule="evenodd" clip-rule="evenodd" d="M30.9696 2C33.2552 2 35.1081 3.88957 35.1081 6.22048V27.3229C35.1081 29.6538 33.2552 31.5434 30.9696 31.5434L24.7639 31.5413L20.0172 36.3819C19.2713 37.1426 18.0976 37.2011 17.2858 36.5575L17.0909 36.3819L12.3442 31.5413L6.13851 31.5434C3.85288 31.5434 2 29.6538 2 27.3229V6.22048C2 3.88957 3.85288 2 6.13851 2H30.9696Z" stroke="#2A2E3B" stroke-width="3.5925" stroke-linecap="round" stroke-linejoin="round"/>
<path fill-rule="evenodd" clip-rule="evenodd" d="M18.5516 18.882C19.5863 18.882 20.6209 17.8269 20.6209 16.7717C20.6209 15.7166 19.5863 14.6615 18.5516 14.6615C17.517 14.6615 16.4848 15.7166 16.4848 16.7717C16.4848 17.8269 17.517 18.882 18.5516 18.882ZM10.2746 18.882C11.3092 18.882 12.3439 17.8269 12.3439 16.7717C12.3439 15.7166 11.3092 14.6615 10.2746 14.6615C9.23999 14.6615 8.20776 15.7166 8.20776 16.7717C8.20776 17.8269 9.23999 18.882 10.2746 18.882ZM26.8287 18.882C27.8633 18.882 28.8979 17.8269 28.8979 16.7717C28.8979 15.7166 27.8633 14.6615 26.8287 14.6615C25.794 14.6615 24.7618 15.7166 24.7618 16.7717C24.7618 17.8269 25.794 18.882 26.8287 18.882Z" fill="#2A2E3B"/>
</svg>
