<svg width="39" height="39" viewBox="0 0 39 39" fill="none" xmlns="http://www.w3.org/2000/svg">
<path d="M19.5 37C29.165 37 37 29.165 37 19.5C37 9.83502 29.165 2 19.5 2C9.83502 2 2 9.83502 2 19.5C2 29.165 9.83502 37 19.5 37Z" stroke="#2A2E3B" stroke-width="3.5925" stroke-linecap="round" stroke-linejoin="round"/>
<path d="M14.0312 16.2188C15.2394 16.2188 16.2188 15.2394 16.2188 14.0312C16.2188 12.8231 15.2394 11.8438 14.0312 11.8438C12.8231 11.8438 11.8438 12.8231 11.8438 14.0312C11.8438 15.2394 12.8231 16.2188 14.0312 16.2188Z" fill="#2A2E3B"/>
<path d="M24.9688 16.2188C26.1769 16.2188 27.1562 15.2394 27.1562 14.0312C27.1562 12.8231 26.1769 11.8438 24.9688 11.8438C23.7606 11.8438 22.7812 12.8231 22.7812 14.0312C22.7812 15.2394 23.7606 16.2188 24.9688 16.2188Z" fill="#2A2E3B"/>
<path d="M11.8438 22.7812C13.8917 24.9688 16.4438 26.0625 19.5 26.0625C22.5562 26.0625 25.1083 24.9688 27.1562 22.7812" stroke="#2A2E3B" stroke-width="3.5925" stroke-linecap="round" stroke-linejoin="round"/>
</svg>
